STARTFONT   2.1
FONT -infocom-Zork-medium-r-normal--10-100-72-72-c-60-misc-fontspecific
SIZE  10  96   96
FONTBOUNDINGBOX 6  10  0  -1
STARTPROPERTIES  4
FONT_ASCENT 9
FONT_DESCENT 1
CAP_HEIGHT 9
DEFAULT_CHAR 8224
ENDPROPERTIES
CHARS  96
STARTCHAR 0
ENCODING 32
SWIDTH    6000    0
DWIDTH    6    0
BBX  6  10  0   -1
BITMAP
00
00
00
00
00
00
00
00
00
00
ENDCHAR
STARTCHAR 1
ENCODING 33
SWIDTH    6000    0
DWIDTH    6    0
BBX  6  10  0   -1
BITMAP
00
00
00
20
60
FC
60
20
00
00
ENDCHAR
STARTCHAR 2
ENCODING 34
SWIDTH    6000    0
DWIDTH    6    0
BBX  6  10  0   -1
BITMAP
00
00
00
10
18
FC
18
10
00
00
ENDCHAR
STARTCHAR 3
ENCODING 35
SWIDTH    6000    0
DWIDTH    6    0
BBX  6  10  0   -1
BITMAP
04
08
08
10
10
20
20
40
40
80
ENDCHAR
STARTCHAR 4
ENCODING 36
SWIDTH    6000    0
DWIDTH    6    0
BBX  6  10  0   -1
BITMAP
80
40
40
20
20
10
08
08
04
04
ENDCHAR
STARTCHAR 5
ENCODING 37
SWIDTH    6000    0
DWIDTH    6    0
BBX  6  10  0   -1
BITMAP
00
00
00
00
00
00
00
00
00
00
ENDCHAR
STARTCHAR 6
ENCODING 38
SWIDTH    6000    0
DWIDTH    6    0
BBX  6  10  0   -1
BITMAP
00
00
00
00
00
FC
00
00
00
00
ENDCHAR
STARTCHAR 7
ENCODING 39
SWIDTH    6000    0
DWIDTH    6    0
BBX  6  10  0   -1
BITMAP
00
00
00
00
FC
00
00
00
00
00
ENDCHAR
STARTCHAR 8
ENCODING 40
SWIDTH    6000    0
DWIDTH    6    0
BBX  6  10  0   -1
BITMAP
10
10
10
10
10
10
10
10
10
10
ENDCHAR
STARTCHAR 9
ENCODING 41
SWIDTH    6000    0
DWIDTH    6    0
BBX  6  10  0   -1
BITMAP
20
20
20
20
20
20
20
20
20
20
ENDCHAR
STARTCHAR 10
ENCODING 42
SWIDTH    6000    0
DWIDTH    6    0
BBX  6  10  0   -1
BITMAP
10
10
10
10
FC
00
00
00
00
00
ENDCHAR
STARTCHAR 11
ENCODING 43
SWIDTH    6000    0
DWIDTH    6    0
BBX  6  10  0   -1
BITMAP
00
00
00
00
00
FC
10
10
10
10
ENDCHAR
STARTCHAR 12
ENCODING 44
SWIDTH    6000    0
DWIDTH    6    0
BBX  6  10  0   -1
BITMAP
10
10
10
10
10
1C
10
10
10
10
ENDCHAR
STARTCHAR 13
ENCODING 45
SWIDTH    6000    0
DWIDTH    6    0
BBX  6  10  0   -1
BITMAP
20
20
20
20
20
E0
20
20
20
20
ENDCHAR
STARTCHAR 14
ENCODING 46
SWIDTH    6000    0
DWIDTH    6    0
BBX  6  10  0   -1
BITMAP
20
20
20
20
20
3C
00
00
00
00
ENDCHAR
STARTCHAR 15
ENCODING 47
SWIDTH    6000    0
DWIDTH    6    0
BBX  6  10  0   -1
BITMAP
00
00
00
00
3C
20
20
20
20
20
ENDCHAR
STARTCHAR 16
ENCODING 48
SWIDTH    6000    0
DWIDTH    6    0
BBX  6  10  0   -1
BITMAP
00
00
00
00
F0
10
10
10
10
10
ENDCHAR
STARTCHAR 17
ENCODING 49
SWIDTH    6000    0
DWIDTH    6    0
BBX  6  10  0   -1
BITMAP
10
10
10
10
10
F0
00
00
00
00
ENDCHAR
STARTCHAR 18
ENCODING 50
SWIDTH    6000    0
DWIDTH    6    0
BBX  6  10  0   -1
BITMAP
20
20
20
20
20
3C
20
40
40
80
ENDCHAR
STARTCHAR 19
ENCODING 51
SWIDTH    6000    0
DWIDTH    6    0
BBX  6  10  0   -1
BITMAP
80
80
40
40
3C
20
20
20
20
20
ENDCHAR
STARTCHAR 20
ENCODING 52
SWIDTH    6000    0
DWIDTH    6    0
BBX  6  10  0   -1
BITMAP
04
08
08
F0
10
10
10
10
10
10
ENDCHAR
STARTCHAR 21
ENCODING 53
SWIDTH    6000    0
DWIDTH    6    0
BBX  6  10  0   -1
BITMAP
10
10
10
10
10
F0
10
08
08
04
ENDCHAR
STARTCHAR 22
ENCODING 54
SWIDTH    6000    0
DWIDTH    6    0
BBX  6  10  0   -1
BITMAP
FC
FC
FC
FC
FC
FC
FC
FC
FC
FC
ENDCHAR
STARTCHAR 23
ENCODING 55
SWIDTH    6000    0
DWIDTH    6    0
BBX  6  10  0   -1
BITMAP
FC
FC
FC
FC
FC
FC
00
00
00
00
ENDCHAR
STARTCHAR 24
ENCODING 56
SWIDTH    6000    0
DWIDTH    6    0
BBX  6  10  0   -1
BITMAP
00
00
00
00
FC
FC
FC
FC
FC
FC
ENDCHAR
STARTCHAR 25
ENCODING 57
SWIDTH    6000    0
DWIDTH    6    0
BBX  6  10  0   -1
BITMAP
F0
F0
F0
F0
F0
F0
F0
F0
F0
F0
ENDCHAR
STARTCHAR 26
ENCODING 58
SWIDTH    6000    0
DWIDTH    6    0
BBX  6  10  0   -1
BITMAP
3C
3C
3C
3C
3C
3C
3C
3C
3C
3C
ENDCHAR
STARTCHAR 27
ENCODING 59
SWIDTH    6000    0
DWIDTH    6    0
BBX  6  10  0   -1
BITMAP
10
10
10
10
FC
FC
FC
FC
FC
FC
ENDCHAR
STARTCHAR 28
ENCODING 60
SWIDTH    6000    0
DWIDTH    6    0
BBX  6  10  0   -1
BITMAP
FC
FC
FC
FC
FC
FC
10
10
10
10
ENDCHAR
STARTCHAR 29
ENCODING 61
SWIDTH    6000    0
DWIDTH    6    0
BBX  6  10  0   -1
BITMAP
F0
F0
F0
F0
F0
FC
F0
F0
F0
F0
ENDCHAR
STARTCHAR 30
ENCODING 62
SWIDTH    6000    0
DWIDTH    6    0
BBX  6  10  0   -1
BITMAP
3C
3C
3C
3C
3C
FC
3C
3C
3C
3C
ENDCHAR
STARTCHAR 31
ENCODING 63
SWIDTH    6000    0
DWIDTH    6    0
BBX  6  10  0   -1
BITMAP
3C
3C
3C
3C
3C
3C
00
00
00
00
ENDCHAR
STARTCHAR 32
ENCODING 64
SWIDTH    6000    0
DWIDTH    6    0
BBX  6  10  0   -1
BITMAP
00
00
00
00
3C
3C
3C
3C
3C
3C
ENDCHAR
STARTCHAR 33
ENCODING 65
SWIDTH    6000    0
DWIDTH    6    0
BBX  6  10  0   -1
BITMAP
00
00
00
00
00
F0
F0
F0
F0
F0
ENDCHAR
STARTCHAR 34
ENCODING 66
SWIDTH    6000    0
DWIDTH    6    0
BBX  6  10  0   -1
BITMAP
F0
F0
F0
F0
F0
F0
00
00
00
00
ENDCHAR
STARTCHAR 35
ENCODING 67
SWIDTH    6000    0
DWIDTH    6    0
BBX  6  10  0   -1
BITMAP
3C
3C
3C
3C
3C
3C
20
40
40
80
ENDCHAR
STARTCHAR 36
ENCODING 68
SWIDTH    6000    0
DWIDTH    6    0
BBX  6  10  0   -1
BITMAP
80
80
40
40
3C
3C
3C
3C
3C
3C
ENDCHAR
STARTCHAR 37
ENCODING 69
SWIDTH    6000    0
DWIDTH    6    0
BBX  6  10  0   -1
BITMAP
04
04
08
08
F0
F0
F0
F0
F0
F0
ENDCHAR
STARTCHAR 38
ENCODING 70
SWIDTH    6000    0
DWIDTH    6    0
BBX  6  10  0   -1
BITMAP
F0
F0
F0
F0
F0
F0
08
08
04
04
ENDCHAR
STARTCHAR 39
ENCODING 71
SWIDTH    6000    0
DWIDTH    6    0
BBX  6  10  0   -1
BITMAP
04
00
00
00
00
00
00
00
00
00
ENDCHAR
STARTCHAR 40
ENCODING 72
SWIDTH    6000    0
DWIDTH    6    0
BBX  6  10  0   -1
BITMAP
00
00
00
00
00
00
00
00
00
04
ENDCHAR
STARTCHAR 41
ENCODING 73
SWIDTH    6000    0
DWIDTH    6    0
BBX  6  10  0   -1
BITMAP
00
00
00
00
00
00
00
00
00
80
ENDCHAR
STARTCHAR 42
ENCODING 74
SWIDTH    6000    0
DWIDTH    6    0
BBX  6  10  0   -1
BITMAP
80
00
00
00
00
00
00
00
00
00
ENDCHAR
STARTCHAR 43
ENCODING 75
SWIDTH    6000    0
DWIDTH    6    0
BBX  6  10  0   -1
BITMAP
FC
00
00
00
00
00
00
00
00
00
ENDCHAR
STARTCHAR 44
ENCODING 76
SWIDTH    6000    0
DWIDTH    6    0
BBX  6  10  0   -1
BITMAP
00
00
00
00
00
00
00
00
00
FC
ENDCHAR
STARTCHAR 45
ENCODING 77
SWIDTH    6000    0
DWIDTH    6    0
BBX  6  10  0   -1
BITMAP
80
80
80
80
80
80
80
80
80
80
ENDCHAR
STARTCHAR 46
ENCODING 78
SWIDTH    6000    0
DWIDTH    6    0
BBX  6  10  0   -1
BITMAP
04
04
04
04
04
04
04
04
04
04
ENDCHAR
STARTCHAR 47
ENCODING 79
SWIDTH    6000    0
DWIDTH    6    0
BBX  6  10  0   -1
BITMAP
00
FC
00
00
00
00
00
00
FC
00
ENDCHAR
STARTCHAR 48
ENCODING 80
SWIDTH    6000    0
DWIDTH    6    0
BBX  6  10  0   -1
BITMAP
00
FC
80
80
80
80
80
80
FC
00
ENDCHAR
STARTCHAR 49
ENCODING 81
SWIDTH    6000    0
DWIDTH    6    0
BBX  6  10  0   -1
BITMAP
00
FC
C0
C0
C0
C0
C0
C0
FC
00
ENDCHAR
STARTCHAR 50
ENCODING 82
SWIDTH    6000    0
DWIDTH    6    0
BBX  6  10  0   -1
BITMAP
00
FC
C0
C0
C0
C0
C0
C0
FC
00
ENDCHAR
STARTCHAR 51
ENCODING 83
SWIDTH    6000    0
DWIDTH    6    0
BBX  6  10  0   -1
BITMAP
00
FC
E0
E0
E0
E0
E0
E0
FC
00
ENDCHAR
STARTCHAR 52
ENCODING 84
SWIDTH    6000    0
DWIDTH    6    0
BBX  6  10  0   -1
BITMAP
00
FC
F0
F0
F0
F0
F0
F0
FC
00
ENDCHAR
STARTCHAR 53
ENCODING 85
SWIDTH    6000    0
DWIDTH    6    0
BBX  6  10  0   -1
BITMAP
00
FC
F0
F0
F0
F0
F0
F0
FC
00
ENDCHAR
STARTCHAR 54
ENCODING 86
SWIDTH    6000    0
DWIDTH    6    0
BBX  6  10  0   -1
BITMAP
00
FC
F8
F8
F8
F8
F8
F8
FC
00
ENDCHAR
STARTCHAR 55
ENCODING 87
SWIDTH    6000    0
DWIDTH    6    0
BBX  6  10  0   -1
BITMAP
00
FC
FC
FC
FC
FC
FC
FC
FC
00
ENDCHAR
STARTCHAR 56
ENCODING 88
SWIDTH    6000    0
DWIDTH    6    0
BBX  6  10  0   -1
BITMAP
00
04
04
04
04
04
04
04
04
00
ENDCHAR
STARTCHAR 57
ENCODING 89
SWIDTH    6000    0
DWIDTH    6    0
BBX  6  10  0   -1
BITMAP
00
80
80
80
80
80
80
80
80
00
ENDCHAR
STARTCHAR 58
ENCODING 90
SWIDTH    6000    0
DWIDTH    6    0
BBX  6  10  0   -1
BITMAP
84
48
48
30
30
30
30
48
48
84
ENDCHAR
STARTCHAR 59
ENCODING 91
SWIDTH    6000    0
DWIDTH    6    0
BBX  6  10  0   -1
BITMAP
10
10
10
10
10
FC
10
10
10
10
ENDCHAR
STARTCHAR 60
ENCODING 92
SWIDTH    6000    0
DWIDTH    6    0
BBX  6  10  0   -1
BITMAP
10
38
7C
10
10
10
10
10
10
10
ENDCHAR
STARTCHAR 61
ENCODING 93
SWIDTH    6000    0
DWIDTH    6    0
BBX  6  10  0   -1
BITMAP
10
10
10
10
10
10
10
7C
38
10
ENDCHAR
STARTCHAR 62
ENCODING 94
SWIDTH    6000    0
DWIDTH    6    0
BBX  6  10  0   -1
BITMAP
10
38
7C
10
10
10
10
7C
38
10
ENDCHAR
STARTCHAR 63
ENCODING 95
SWIDTH    6000    0
DWIDTH    6    0
BBX  6  10  0   -1
BITMAP
FC
84
84
84
84
84
84
84
84
FC
ENDCHAR
STARTCHAR 64
ENCODING 96
SWIDTH    6000    0
DWIDTH    6    0
BBX  6  10  0   -1
BITMAP
30
48
08
08
10
10
10
00
00
10
ENDCHAR
STARTCHAR 65
ENCODING 97
SWIDTH    6000    0
DWIDTH    6    0
BBX  6  10  0   -1
BITMAP
00
C4
A8
90
80
C0
A0
90
80
80
ENDCHAR
STARTCHAR 66
ENCODING 98
SWIDTH    6000    0
DWIDTH    6    0
BBX  6  10  0   -1
BITMAP
00
E0
90
88
88
F8
88
88
90
E0
ENDCHAR
STARTCHAR 67
ENCODING 99
SWIDTH    6000    0
DWIDTH    6    0
BBX  6  10  0   -1
BITMAP
00
20
30
28
20
20
20
A0
60
20
ENDCHAR
STARTCHAR 68
ENCODING 100
SWIDTH    6000    0
DWIDTH    6    0
BBX  6  10  0   -1
BITMAP
00
84
CC
CC
B4
B4
B4
CC
CC
84
ENDCHAR
STARTCHAR 69
ENCODING 101
SWIDTH    6000    0
DWIDTH    6    0
BBX  6  10  0   -1
BITMAP
00
88
D8
A8
88
88
88
88
88
88
ENDCHAR
STARTCHAR 70
ENCODING 102
SWIDTH    6000    0
DWIDTH    6    0
BBX  6  10  0   -1
BITMAP
00
A8
A8
D0
D0
A0
A0
C0
C0
80
ENDCHAR
STARTCHAR 71
ENCODING 103
SWIDTH    6000    0
DWIDTH    6    0
BBX  6  10  0   -1
BITMAP
00
88
88
50
50
A8
A8
50
50
88
ENDCHAR
STARTCHAR 72
ENCODING 104
SWIDTH    6000    0
DWIDTH    6    0
BBX  6  10  0   -1
BITMAP
00
C8
A8
A8
98
88
C8
C8
A8
98
ENDCHAR
STARTCHAR 73
ENCODING 105
SWIDTH    6000    0
DWIDTH    6    0
BBX  6  10  0   -1
BITMAP
00
20
20
20
20
20
20
20
20
20
ENDCHAR
STARTCHAR 74
ENCODING 106
SWIDTH    6000    0
DWIDTH    6    0
BBX  6  10  0   -1
BITMAP
00
20
20
70
70
A8
A8
70
70
20
ENDCHAR
STARTCHAR 75
ENCODING 107
SWIDTH    6000    0
DWIDTH    6    0
BBX  6  10  0   -1
BITMAP
00
80
80
C0
C0
A0
90
90
88
88
ENDCHAR
STARTCHAR 76
ENCODING 108
SWIDTH    6000    0
DWIDTH    6    0
BBX  6  10  0   -1
BITMAP
00
C0
C0
A0
A0
90
80
80
80
80
ENDCHAR
STARTCHAR 77
ENCODING 109
SWIDTH    6000    0
DWIDTH    6    0
BBX  6  10  0   -1
BITMAP
00
88
D8
A8
A8
D8
88
88
88
88
ENDCHAR
STARTCHAR 78
ENCODING 110
SWIDTH    6000    0
DWIDTH    6    0
BBX  6  10  0   -1
BITMAP
00
A0
A0
60
60
20
20
30
30
28
ENDCHAR
STARTCHAR 79
ENCODING 111
SWIDTH    6000    0
DWIDTH    6    0
BBX  6  10  0   -1
BITMAP
00
C8
B8
88
88
C8
B0
80
80
80
ENDCHAR
STARTCHAR 80
ENCODING 112
SWIDTH    6000    0
DWIDTH    6    0
BBX  6  10  0   -1
BITMAP
00
80
80
80
80
88
98
A8
A8
C8
ENDCHAR
STARTCHAR 81
ENCODING 113
SWIDTH    6000    0
DWIDTH    6    0
BBX  6  10  0   -1
BITMAP
00
A8
70
20
20
20
20
20
20
20
ENDCHAR
STARTCHAR 82
ENCODING 114
SWIDTH    6000    0
DWIDTH    6    0
BBX  6  10  0   -1
BITMAP
00
E0
90
88
90
E0
90
90
88
88
ENDCHAR
STARTCHAR 83
ENCODING 115
SWIDTH    6000    0
DWIDTH    6    0
BBX  6  10  0   -1
BITMAP
00
80
88
98
98
A8
C8
C8
88
08
ENDCHAR
STARTCHAR 84
ENCODING 116
SWIDTH    6000    0
DWIDTH    6    0
BBX  6  10  0   -1
BITMAP
00
70
A8
20
20
20
20
20
20
20
ENDCHAR
STARTCHAR 85
ENCODING 117
SWIDTH    6000    0
DWIDTH    6    0
BBX  6  10  0   -1
BITMAP
00
40
60
60
50
48
48
48
48
48
ENDCHAR
STARTCHAR 86
ENCODING 118
SWIDTH    6000    0
DWIDTH    6    0
BBX  6  10  0   -1
BITMAP
00
20
50
50
20
20
50
50
88
88
ENDCHAR
STARTCHAR 87
ENCODING 119
SWIDTH    6000    0
DWIDTH    6    0
BBX  6  10  0   -1
BITMAP
00
70
48
48
48
70
40
40
40
40
ENDCHAR
STARTCHAR 88
ENCODING 120
SWIDTH    6000    0
DWIDTH    6    0
BBX  6  10  0   -1
BITMAP
00
20
20
20
20
70
A8
A8
A8
A8
ENDCHAR
STARTCHAR 89
ENCODING 121
SWIDTH    6000    0
DWIDTH    6    0
BBX  6  10  0   -1
BITMAP
00
E0
B0
A8
A8
E8
A8
B8
A8
A8
ENDCHAR
STARTCHAR 90
ENCODING 122
SWIDTH    6000    0
DWIDTH    6    0
BBX  6  10  0   -1
BITMAP
00
78
80
80
80
80
40
40
20
38
ENDCHAR
STARTCHAR 91
ENCODING 123
SWIDTH    6000    0
DWIDTH    6    0
BBX  6  10  0   -1
BITMAP
DC
8C
04
DC
DC
DC
DC
DC
DC
DC
ENDCHAR
STARTCHAR 92
ENCODING 124
SWIDTH    6000    0
DWIDTH    6    0
BBX  6  10  0   -1
BITMAP
DC
DC
DC
DC
DC
DC
DC
04
8C
DC
ENDCHAR
STARTCHAR 93
ENCODING 125
SWIDTH    6000    0
DWIDTH    6    0
BBX  6  10  0   -1
BITMAP
DC
8C
04
DC
DC
DC
DC
04
8C
DC
ENDCHAR
STARTCHAR 94
ENCODING 126
SWIDTH    6000    0
DWIDTH    6    0
BBX  6  10  0   -1
BITMAP
CC
B4
F8
F8
F8
F4
EC
DC
FC
DC
ENDCHAR
STARTCHAR 95
ENCODING 127
SWIDTH    6000    0
DWIDTH    6    0
BBX  6  10  0   -1
BITMAP
00
00
00
00
00
00
00
00
00
00
ENDCHAR
ENDFONT
